<mxfile host="app.diagrams.net" modified="2023-01-31T14:06:11.744Z" agent="5.0 (Windows NT 10.0; Win64; x64) AppleWebKit/537.36 (KHTML, like Gecko) Chrome/108.0.0.0 Safari/537.36 OPR/94.0.0.0 (Edition std-1)" version="20.8.5" etag="u2_OheiPei2Y46ymJHIB" type="github">
  <diagram id="IwTlcwByzuIYREjI4iug" name="Seite-1">
    <mxGraphModel dx="961" dy="544" grid="1" gridSize="10" guides="1" tooltips="1" connect="1" arrows="1" fold="1" page="1" pageScale="1" pageWidth="827" pageHeight="1169" math="0" shadow="0">
      <root>
        <mxCell id="0" />
        <mxCell id="1" parent="0" />
        <mxCell id="A7s-TIBmYgNjkqLbJvCM-52" value="" style="shape=hexagon;perimeter=hexagonPerimeter2;whiteSpace=wrap;html=1;fixedSize=1;fontSize=7;fillColor=#cce5ff;strokeColor=#36393d;" vertex="1" parent="1">
          <mxGeometry x="60" y="100" width="160" height="80" as="geometry" />
        </mxCell>
        <mxCell id="A7s-TIBmYgNjkqLbJvCM-50" value="" style="shape=hexagon;perimeter=hexagonPerimeter2;whiteSpace=wrap;html=1;fixedSize=1;fontSize=7;fillColor=#bac8d3;strokeColor=#23445d;" vertex="1" parent="1">
          <mxGeometry x="130" y="200" width="380" height="100" as="geometry" />
        </mxCell>
        <mxCell id="A7s-TIBmYgNjkqLbJvCM-25" value="" style="rounded=1;whiteSpace=wrap;html=1;fontSize=10;fillColor=#b0e3e6;strokeColor=#0e8088;" vertex="1" parent="1">
          <mxGeometry x="160" y="217.5" width="320" height="72.5" as="geometry" />
        </mxCell>
        <mxCell id="A7s-TIBmYgNjkqLbJvCM-4" value="SN2930Ma-24p-EV101" style="rounded=0;whiteSpace=wrap;html=1;fontSize=10;" vertex="1" parent="1">
          <mxGeometry x="80" y="120" width="120" height="40" as="geometry" />
        </mxCell>
        <mxCell id="A7s-TIBmYgNjkqLbJvCM-5" value="13" style="rounded=0;whiteSpace=wrap;html=1;fontSize=10;" vertex="1" parent="1">
          <mxGeometry x="100" y="100" width="20" height="20" as="geometry" />
        </mxCell>
        <mxCell id="A7s-TIBmYgNjkqLbJvCM-6" value="A2" style="rounded=0;whiteSpace=wrap;html=1;fontSize=10;" vertex="1" parent="1">
          <mxGeometry x="200" y="120" width="20" height="20" as="geometry" />
        </mxCell>
        <mxCell id="A7s-TIBmYgNjkqLbJvCM-7" value="A1" style="rounded=0;whiteSpace=wrap;html=1;fontSize=10;" vertex="1" parent="1">
          <mxGeometry x="200" y="140" width="20" height="20" as="geometry" />
        </mxCell>
        <mxCell id="A7s-TIBmYgNjkqLbJvCM-17" style="edgeStyle=orthogonalEdgeStyle;rounded=0;orthogonalLoop=1;jettySize=auto;html=1;exitX=1;exitY=0;exitDx=0;exitDy=0;fontSize=10;" edge="1" parent="1" source="A7s-TIBmYgNjkqLbJvCM-10">
          <mxGeometry relative="1" as="geometry">
            <mxPoint x="280.20000000000005" y="250" as="targetPoint" />
          </mxGeometry>
        </mxCell>
        <mxCell id="A7s-TIBmYgNjkqLbJvCM-10" value="VSX1" style="rounded=0;whiteSpace=wrap;html=1;fontSize=10;fillColor=#d0cee2;strokeColor=#56517e;" vertex="1" parent="1">
          <mxGeometry x="220" y="250" width="60" height="30" as="geometry" />
        </mxCell>
        <mxCell id="A7s-TIBmYgNjkqLbJvCM-11" value="VSX2" style="rounded=0;whiteSpace=wrap;html=1;fontSize=10;fillColor=#d0cee2;strokeColor=#56517e;" vertex="1" parent="1">
          <mxGeometry x="360" y="250" width="60" height="30" as="geometry" />
        </mxCell>
        <mxCell id="A7s-TIBmYgNjkqLbJvCM-12" value="" style="endArrow=classic;html=1;rounded=0;fontSize=10;exitX=1;exitY=0.5;exitDx=0;exitDy=0;entryX=0.5;entryY=0;entryDx=0;entryDy=0;" edge="1" parent="1" source="A7s-TIBmYgNjkqLbJvCM-6" target="A7s-TIBmYgNjkqLbJvCM-11">
          <mxGeometry width="50" height="50" relative="1" as="geometry">
            <mxPoint x="240" y="210" as="sourcePoint" />
            <mxPoint x="290" y="160" as="targetPoint" />
            <Array as="points">
              <mxPoint x="390" y="130" />
            </Array>
          </mxGeometry>
        </mxCell>
        <mxCell id="A7s-TIBmYgNjkqLbJvCM-14" value="" style="endArrow=classic;html=1;rounded=0;fontSize=10;entryX=0.5;entryY=0;entryDx=0;entryDy=0;exitX=1;exitY=0.5;exitDx=0;exitDy=0;" edge="1" parent="1" source="A7s-TIBmYgNjkqLbJvCM-7" target="A7s-TIBmYgNjkqLbJvCM-10">
          <mxGeometry width="50" height="50" relative="1" as="geometry">
            <mxPoint x="180" y="230" as="sourcePoint" />
            <mxPoint x="230" y="180" as="targetPoint" />
            <Array as="points">
              <mxPoint x="250" y="150" />
            </Array>
          </mxGeometry>
        </mxCell>
        <mxCell id="A7s-TIBmYgNjkqLbJvCM-15" value="LWL" style="text;html=1;align=center;verticalAlign=middle;resizable=0;points=[];autosize=1;strokeColor=none;fillColor=none;fontSize=10;" vertex="1" parent="1">
          <mxGeometry x="300" y="109" width="40" height="30" as="geometry" />
        </mxCell>
        <mxCell id="A7s-TIBmYgNjkqLbJvCM-16" value="LWL" style="text;html=1;align=center;verticalAlign=middle;resizable=0;points=[];autosize=1;strokeColor=none;fillColor=none;fontSize=10;" vertex="1" parent="1">
          <mxGeometry x="220" y="129" width="40" height="30" as="geometry" />
        </mxCell>
        <mxCell id="A7s-TIBmYgNjkqLbJvCM-18" value="" style="endArrow=classic;html=1;rounded=0;fontSize=10;exitX=1;exitY=0;exitDx=0;exitDy=0;endSize=3;" edge="1" parent="1" source="A7s-TIBmYgNjkqLbJvCM-10">
          <mxGeometry width="50" height="50" relative="1" as="geometry">
            <mxPoint x="280" y="270" as="sourcePoint" />
            <mxPoint x="360" y="250" as="targetPoint" />
          </mxGeometry>
        </mxCell>
        <mxCell id="A7s-TIBmYgNjkqLbJvCM-21" value="" style="endArrow=classic;html=1;rounded=0;fontSize=10;exitX=1;exitY=0.25;exitDx=0;exitDy=0;endSize=3;entryX=0;entryY=0.25;entryDx=0;entryDy=0;" edge="1" parent="1" source="A7s-TIBmYgNjkqLbJvCM-10" target="A7s-TIBmYgNjkqLbJvCM-11">
          <mxGeometry width="50" height="50" relative="1" as="geometry">
            <mxPoint x="280" y="260" as="sourcePoint" />
            <mxPoint x="360" y="260" as="targetPoint" />
          </mxGeometry>
        </mxCell>
        <mxCell id="A7s-TIBmYgNjkqLbJvCM-22" value="" style="endArrow=classic;html=1;rounded=0;fontSize=10;exitX=0;exitY=1;exitDx=0;exitDy=0;endSize=3;entryX=1;entryY=1;entryDx=0;entryDy=0;" edge="1" parent="1" source="A7s-TIBmYgNjkqLbJvCM-11" target="A7s-TIBmYgNjkqLbJvCM-10">
          <mxGeometry width="50" height="50" relative="1" as="geometry">
            <mxPoint x="300" y="270" as="sourcePoint" />
            <mxPoint x="380" y="270" as="targetPoint" />
          </mxGeometry>
        </mxCell>
        <mxCell id="A7s-TIBmYgNjkqLbJvCM-23" value="" style="endArrow=classic;html=1;rounded=0;fontSize=10;exitX=0;exitY=0.75;exitDx=0;exitDy=0;endSize=3;entryX=1;entryY=0.75;entryDx=0;entryDy=0;" edge="1" parent="1" source="A7s-TIBmYgNjkqLbJvCM-11" target="A7s-TIBmYgNjkqLbJvCM-10">
          <mxGeometry width="50" height="50" relative="1" as="geometry">
            <mxPoint x="310" y="280" as="sourcePoint" />
            <mxPoint x="390" y="280" as="targetPoint" />
          </mxGeometry>
        </mxCell>
        <mxCell id="A7s-TIBmYgNjkqLbJvCM-24" value="LWL" style="text;html=1;align=center;verticalAlign=middle;resizable=0;points=[];autosize=1;strokeColor=none;fillColor=none;fontSize=10;" vertex="1" parent="1">
          <mxGeometry x="300" y="250" width="40" height="30" as="geometry" />
        </mxCell>
        <mxCell id="A7s-TIBmYgNjkqLbJvCM-26" value="GV9-GV10 Stack" style="text;html=1;align=center;verticalAlign=middle;resizable=0;points=[];autosize=1;strokeColor=none;fillColor=none;fontSize=10;" vertex="1" parent="1">
          <mxGeometry x="270" y="217.5" width="100" height="30" as="geometry" />
        </mxCell>
        <mxCell id="A7s-TIBmYgNjkqLbJvCM-29" value="" style="rounded=1;whiteSpace=wrap;html=1;fontSize=10;fillColor=#d0cee2;strokeColor=#56517e;" vertex="1" parent="1">
          <mxGeometry x="160" y="360" width="320" height="72.5" as="geometry" />
        </mxCell>
        <mxCell id="A7s-TIBmYgNjkqLbJvCM-30" value="Member 1" style="whiteSpace=wrap;html=1;aspect=fixed;fontSize=7;" vertex="1" parent="1">
          <mxGeometry x="220" y="366.25" width="60" height="60" as="geometry" />
        </mxCell>
        <mxCell id="A7s-TIBmYgNjkqLbJvCM-31" value="Member 2" style="whiteSpace=wrap;html=1;aspect=fixed;fontSize=7;" vertex="1" parent="1">
          <mxGeometry x="360" y="366.25" width="60" height="60" as="geometry" />
        </mxCell>
        <mxCell id="A7s-TIBmYgNjkqLbJvCM-32" value="Core" style="text;html=1;align=center;verticalAlign=middle;resizable=0;points=[];autosize=1;strokeColor=none;fillColor=none;fontSize=7;" vertex="1" parent="1">
          <mxGeometry x="300" y="366.25" width="40" height="20" as="geometry" />
        </mxCell>
        <mxCell id="A7s-TIBmYgNjkqLbJvCM-33" value="" style="endArrow=classic;html=1;rounded=0;fontSize=10;endSize=3;exitX=0.009;exitY=0.599;exitDx=0;exitDy=0;entryX=0.997;entryY=0.599;entryDx=0;entryDy=0;entryPerimeter=0;exitPerimeter=0;" edge="1" parent="1" source="A7s-TIBmYgNjkqLbJvCM-31" target="A7s-TIBmYgNjkqLbJvCM-30">
          <mxGeometry width="50" height="50" relative="1" as="geometry">
            <mxPoint x="320" y="450" as="sourcePoint" />
            <mxPoint x="320" y="450" as="targetPoint" />
          </mxGeometry>
        </mxCell>
        <mxCell id="A7s-TIBmYgNjkqLbJvCM-34" value="" style="endArrow=classic;html=1;rounded=0;fontSize=10;exitX=1.003;exitY=0.399;exitDx=0;exitDy=0;endSize=3;entryX=-0.004;entryY=0.397;entryDx=0;entryDy=0;exitPerimeter=0;entryPerimeter=0;" edge="1" parent="1" source="A7s-TIBmYgNjkqLbJvCM-30" target="A7s-TIBmYgNjkqLbJvCM-31">
          <mxGeometry width="50" height="50" relative="1" as="geometry">
            <mxPoint x="380" y="300" as="sourcePoint" />
            <mxPoint x="300" y="300" as="targetPoint" />
            <Array as="points">
              <mxPoint x="320" y="390" />
            </Array>
          </mxGeometry>
        </mxCell>
        <mxCell id="A7s-TIBmYgNjkqLbJvCM-37" value="" style="endArrow=classic;html=1;rounded=0;fontSize=7;endSize=3;entryX=0.25;entryY=0;entryDx=0;entryDy=0;exitX=0.25;exitY=1;exitDx=0;exitDy=0;" edge="1" parent="1" source="A7s-TIBmYgNjkqLbJvCM-10" target="A7s-TIBmYgNjkqLbJvCM-30">
          <mxGeometry width="50" height="50" relative="1" as="geometry">
            <mxPoint x="260" y="330" as="sourcePoint" />
            <mxPoint x="310" y="280" as="targetPoint" />
          </mxGeometry>
        </mxCell>
        <mxCell id="A7s-TIBmYgNjkqLbJvCM-39" value="" style="endArrow=classic;html=1;rounded=0;fontSize=7;endSize=3;entryX=0.5;entryY=0;entryDx=0;entryDy=0;exitX=0.5;exitY=1;exitDx=0;exitDy=0;" edge="1" parent="1" source="A7s-TIBmYgNjkqLbJvCM-10" target="A7s-TIBmYgNjkqLbJvCM-30">
          <mxGeometry width="50" height="50" relative="1" as="geometry">
            <mxPoint x="280" y="360" as="sourcePoint" />
            <mxPoint x="330" y="310" as="targetPoint" />
          </mxGeometry>
        </mxCell>
        <mxCell id="A7s-TIBmYgNjkqLbJvCM-40" value="" style="endArrow=classic;html=1;rounded=0;fontSize=7;endSize=3;entryX=0.75;entryY=0;entryDx=0;entryDy=0;exitX=0.75;exitY=1;exitDx=0;exitDy=0;" edge="1" parent="1" source="A7s-TIBmYgNjkqLbJvCM-11" target="A7s-TIBmYgNjkqLbJvCM-31">
          <mxGeometry width="50" height="50" relative="1" as="geometry">
            <mxPoint x="420" y="310" as="sourcePoint" />
            <mxPoint x="410" y="366.25" as="targetPoint" />
          </mxGeometry>
        </mxCell>
        <mxCell id="A7s-TIBmYgNjkqLbJvCM-41" value="" style="endArrow=classic;html=1;rounded=0;fontSize=7;endSize=3;entryX=0.5;entryY=0;entryDx=0;entryDy=0;exitX=0.5;exitY=1;exitDx=0;exitDy=0;" edge="1" parent="1">
          <mxGeometry width="50" height="50" relative="1" as="geometry">
            <mxPoint x="389.88" y="280" as="sourcePoint" />
            <mxPoint x="389.88" y="366.25" as="targetPoint" />
          </mxGeometry>
        </mxCell>
        <mxCell id="A7s-TIBmYgNjkqLbJvCM-42" value="" style="endArrow=classic;html=1;rounded=0;fontSize=7;endSize=3;entryX=1;entryY=0;entryDx=0;entryDy=0;exitX=0.25;exitY=1;exitDx=0;exitDy=0;" edge="1" parent="1" source="A7s-TIBmYgNjkqLbJvCM-11" target="A7s-TIBmYgNjkqLbJvCM-30">
          <mxGeometry width="50" height="50" relative="1" as="geometry">
            <mxPoint x="290" y="310" as="sourcePoint" />
            <mxPoint x="340" y="260" as="targetPoint" />
          </mxGeometry>
        </mxCell>
        <mxCell id="A7s-TIBmYgNjkqLbJvCM-43" value="" style="endArrow=classic;html=1;rounded=0;fontSize=7;endSize=3;entryX=0;entryY=0;entryDx=0;entryDy=0;exitX=0.75;exitY=1;exitDx=0;exitDy=0;" edge="1" parent="1" source="A7s-TIBmYgNjkqLbJvCM-10" target="A7s-TIBmYgNjkqLbJvCM-31">
          <mxGeometry width="50" height="50" relative="1" as="geometry">
            <mxPoint x="280" y="350" as="sourcePoint" />
            <mxPoint x="330" y="300" as="targetPoint" />
          </mxGeometry>
        </mxCell>
        <mxCell id="A7s-TIBmYgNjkqLbJvCM-45" value="" style="endArrow=classic;html=1;rounded=0;fontSize=7;endSize=3;entryX=0.75;entryY=0;entryDx=0;entryDy=0;exitX=0;exitY=1;exitDx=0;exitDy=0;" edge="1" parent="1" source="A7s-TIBmYgNjkqLbJvCM-11" target="A7s-TIBmYgNjkqLbJvCM-30">
          <mxGeometry width="50" height="50" relative="1" as="geometry">
            <mxPoint x="290" y="350" as="sourcePoint" />
            <mxPoint x="340" y="300" as="targetPoint" />
          </mxGeometry>
        </mxCell>
        <mxCell id="A7s-TIBmYgNjkqLbJvCM-46" value="" style="endArrow=classic;html=1;rounded=0;fontSize=7;endSize=3;entryX=0.25;entryY=0;entryDx=0;entryDy=0;exitX=1;exitY=1;exitDx=0;exitDy=0;" edge="1" parent="1" source="A7s-TIBmYgNjkqLbJvCM-10" target="A7s-TIBmYgNjkqLbJvCM-31">
          <mxGeometry width="50" height="50" relative="1" as="geometry">
            <mxPoint x="300" y="350" as="sourcePoint" />
            <mxPoint x="350" y="300" as="targetPoint" />
          </mxGeometry>
        </mxCell>
        <mxCell id="A7s-TIBmYgNjkqLbJvCM-47" value="LWL" style="text;html=1;align=center;verticalAlign=middle;resizable=0;points=[];autosize=1;strokeColor=none;fillColor=none;fontSize=4;" vertex="1" parent="1">
          <mxGeometry x="305" y="313" width="30" height="20" as="geometry" />
        </mxCell>
        <mxCell id="A7s-TIBmYgNjkqLbJvCM-48" value="&lt;font style=&quot;font-size: 7px;&quot;&gt;LWL&lt;/font&gt;" style="text;html=1;align=center;verticalAlign=middle;resizable=0;points=[];autosize=1;strokeColor=none;fillColor=none;fontSize=4;" vertex="1" parent="1">
          <mxGeometry x="222" y="313" width="40" height="20" as="geometry" />
        </mxCell>
        <mxCell id="A7s-TIBmYgNjkqLbJvCM-49" value="&lt;font style=&quot;font-size: 7px;&quot;&gt;LWL&lt;/font&gt;" style="text;html=1;align=center;verticalAlign=middle;resizable=0;points=[];autosize=1;strokeColor=none;fillColor=none;fontSize=4;" vertex="1" parent="1">
          <mxGeometry x="377" y="313" width="40" height="20" as="geometry" />
        </mxCell>
        <mxCell id="A7s-TIBmYgNjkqLbJvCM-51" value="Gebäude-Verteiler" style="text;html=1;align=center;verticalAlign=middle;resizable=0;points=[];autosize=1;strokeColor=none;fillColor=none;fontSize=7;" vertex="1" parent="1">
          <mxGeometry x="280" y="198.5" width="80" height="20" as="geometry" />
        </mxCell>
        <mxCell id="A7s-TIBmYgNjkqLbJvCM-53" value="Etagen-Verteiler" style="text;html=1;align=center;verticalAlign=middle;resizable=0;points=[];autosize=1;strokeColor=none;fillColor=none;fontSize=7;" vertex="1" parent="1">
          <mxGeometry x="115" y="100" width="70" height="20" as="geometry" />
        </mxCell>
        <mxCell id="A7s-TIBmYgNjkqLbJvCM-54" value="" style="rounded=0;whiteSpace=wrap;html=1;fontSize=7;fillColor=#d5e8d4;strokeColor=#82b366;" vertex="1" parent="1">
          <mxGeometry x="450" y="21" width="140" height="81" as="geometry" />
        </mxCell>
        <mxCell id="A7s-TIBmYgNjkqLbJvCM-55" value="" style="endArrow=classic;html=1;rounded=0;fontSize=7;endSize=3;exitX=0.5;exitY=0;exitDx=0;exitDy=0;entryX=0;entryY=0.5;entryDx=0;entryDy=0;edgeStyle=orthogonalEdgeStyle;" edge="1" parent="1" source="A7s-TIBmYgNjkqLbJvCM-5" target="A7s-TIBmYgNjkqLbJvCM-56">
          <mxGeometry width="50" height="50" relative="1" as="geometry">
            <mxPoint x="230" y="240" as="sourcePoint" />
            <mxPoint x="310" y="30" as="targetPoint" />
          </mxGeometry>
        </mxCell>
        <mxCell id="A7s-TIBmYgNjkqLbJvCM-56" value="15" style="whiteSpace=wrap;html=1;aspect=fixed;fontSize=7;" vertex="1" parent="1">
          <mxGeometry x="450" y="43" width="19" height="19" as="geometry" />
        </mxCell>
        <mxCell id="A7s-TIBmYgNjkqLbJvCM-57" value="16" style="whiteSpace=wrap;html=1;aspect=fixed;fontSize=7;" vertex="1" parent="1">
          <mxGeometry x="450" y="62" width="19" height="19" as="geometry" />
        </mxCell>
        <mxCell id="A7s-TIBmYgNjkqLbJvCM-58" value="K" style="text;html=1;align=center;verticalAlign=middle;resizable=0;points=[];autosize=1;strokeColor=none;fillColor=none;fontSize=7;" vertex="1" parent="1">
          <mxGeometry x="443.5" y="28" width="30" height="20" as="geometry" />
        </mxCell>
        <mxCell id="A7s-TIBmYgNjkqLbJvCM-59" value="" style="fontColor=#0066CC;verticalAlign=top;verticalLabelPosition=bottom;labelPosition=center;align=center;html=1;outlineConnect=0;fillColor=#CCCCCC;strokeColor=#6881B3;gradientColor=none;gradientDirection=north;strokeWidth=2;shape=mxgraph.networks.pc;fontSize=7;" vertex="1" parent="1">
          <mxGeometry x="545" y="68" width="40" height="30" as="geometry" />
        </mxCell>
        <mxCell id="A7s-TIBmYgNjkqLbJvCM-61" value="" style="endArrow=classic;html=1;rounded=0;fontSize=7;endSize=3;exitX=0.5;exitY=0.07;exitDx=0;exitDy=0;exitPerimeter=0;entryX=1.032;entryY=0.835;entryDx=0;entryDy=0;entryPerimeter=0;" edge="1" parent="1" target="A7s-TIBmYgNjkqLbJvCM-56">
          <mxGeometry width="50" height="50" relative="1" as="geometry">
            <mxPoint x="564" y="70.1" as="sourcePoint" />
            <mxPoint x="469" y="52.5" as="targetPoint" />
            <Array as="points">
              <mxPoint x="564" y="60" />
            </Array>
          </mxGeometry>
        </mxCell>
        <mxCell id="A7s-TIBmYgNjkqLbJvCM-62" value="RAUM" style="text;html=1;align=center;verticalAlign=middle;resizable=0;points=[];autosize=1;strokeColor=none;fillColor=none;fontSize=7;" vertex="1" parent="1">
          <mxGeometry x="500" y="21" width="40" height="20" as="geometry" />
        </mxCell>
      </root>
    </mxGraphModel>
  </diagram>
</mxfile>
